<?xml version="1.0" standalone="no"?>
<!DOCTYPE svg PUBLIC "-//W3C//DTD SVG 20010904//EN"
 "http://www.w3.org/TR/2001/REC-SVG-20010904/DTD/svg10.dtd">
<svg version="1.0" xmlns="http://www.w3.org/2000/svg"
 width="512.000000pt" height="512.000000pt" viewBox="0 0 512.000000 512.000000"
 preserveAspectRatio="xMidYMid meet">
<metadata>
Created by potrace 1.14, written by Peter Selinger 2001-2017
</metadata>
<g transform="translate(0.000000,512.000000) scale(0.100000,-0.100000)"
fill="#000000" stroke="none">
<path d="M2367 5113 c-2 -1 -28 -5 -58 -7 -30 -3 -56 -5 -59 -6 -3 -1 -9 -2
-14 -1 -5 1 -13 -4 -17 -11 -7 -10 -9 -10 -9 0 0 10 -5 10 -20 2 -11 -6 -20
-7 -20 -3 0 4 -5 2 -12 -5 -8 -8 -15 -9 -25 -1 -10 9 -13 7 -13 -7 0 -13 -3
-15 -8 -7 -5 8 -22 10 -49 6 -24 -3 -40 -9 -38 -13 3 -5 -3 -7 -12 -5 -10 1
-33 -4 -51 -11 -24 -10 -31 -10 -25 -1 4 7 0 7 -10 -2 -9 -7 -17 -10 -17 -5 0
5 -4 4 -8 -1 -4 -6 -34 -16 -66 -23 -33 -6 -63 -17 -68 -24 -6 -10 -8 -10 -8
0 0 10 -4 10 -16 -2 -8 -9 -24 -17 -35 -17 -27 -2 -31 -3 -64 -21 -16 -8 -36
-13 -42 -11 -7 3 -13 -2 -13 -9 0 -9 -9 -14 -22 -13 -13 1 -29 -5 -36 -14 -10
-12 -11 -12 -6 -1 5 8 -4 5 -20 -8 -16 -12 -35 -22 -42 -22 -7 0 -20 -8 -30
-17 -10 -10 -18 -16 -18 -14 -2 8 -51 -12 -78 -31 -16 -11 -33 -16 -38 -13 -6
4 -9 3 -8 -2 2 -4 -1 -9 -6 -10 -5 0 -13 -8 -18 -17 -5 -9 -13 -14 -19 -11 -5
4 -9 1 -9 -5 0 -7 -7 -10 -15 -6 -9 3 -15 0 -15 -10 0 -8 -4 -12 -10 -9 -5 3
-10 1 -10 -4 0 -6 -7 -11 -15 -11 -8 0 -15 -5 -15 -11 0 -6 -6 -9 -13 -6 -7 3
-19 -4 -25 -14 -7 -10 -18 -19 -25 -19 -6 0 -25 -14 -41 -30 -16 -16 -33 -27
-37 -24 -5 3 -9 -3 -9 -12 0 -10 -3 -14 -7 -11 -3 4 -16 -5 -29 -18 -13 -14
-26 -25 -29 -25 -21 1 -25 -1 -20 -10 3 -5 2 -10 -4 -10 -13 0 -87 -71 -84
-81 2 -5 -5 -5 -14 -2 -11 4 -14 3 -9 -5 4 -7 2 -12 -5 -12 -13 0 -74 -60 -62
-61 5 0 -2 -4 -15 -10 -13 -5 -20 -13 -17 -19 3 -5 -1 -10 -9 -10 -9 0 -22
-13 -30 -29 -9 -16 -22 -31 -31 -35 -9 -3 -13 -10 -10 -16 3 -5 2 -10 -3 -10
-11 0 -53 -36 -54 -47 -1 -4 -15 -25 -32 -47 -17 -21 -30 -42 -29 -47 2 -4 -6
-11 -17 -14 -11 -4 -18 -10 -15 -14 2 -5 -4 -16 -15 -26 -11 -10 -20 -24 -20
-30 0 -7 -7 -16 -16 -19 -8 -3 -12 -10 -9 -16 3 -5 -2 -10 -12 -11 -10 0 -13
-3 -6 -6 13 -5 12 -6 -27 -52 -8 -10 -16 -24 -18 -32 -2 -7 -8 -17 -14 -20 -6
-4 -7 -12 -3 -19 5 -8 4 -11 -2 -7 -10 6 -23 -13 -22 -29 0 -4 -4 -10 -11 -14
-6 -4 -12 -14 -14 -22 -1 -9 -7 -22 -13 -29 -6 -8 -12 -18 -14 -24 -9 -32 -25
-65 -32 -65 -4 0 -5 -4 -2 -10 3 -5 1 -10 -4 -10 -6 0 -11 -3 -10 -7 3 -18
-14 -53 -25 -53 -6 0 -4 -5 4 -10 9 -6 10 -10 3 -10 -6 0 -13 -10 -15 -22 -2
-13 -9 -22 -17 -20 -12 3 -12 0 -1 -12 9 -12 9 -16 1 -16 -7 0 -9 -4 -6 -10 3
-5 1 -10 -4 -10 -6 0 -10 -3 -10 -7 1 -5 0 -10 -1 -13 -3 -10 -11 -45 -12 -57
-1 -7 -5 -13 -10 -13 -5 0 -6 -4 -3 -10 3 -5 2 -10 -4 -10 -6 0 -8 -7 -5 -15
4 -8 1 -15 -6 -15 -10 0 -10 -3 -1 -14 8 -10 9 -16 1 -21 -5 -3 -10 -15 -10
-26 0 -10 -4 -19 -9 -19 -5 0 -7 -13 -6 -30 1 -16 -1 -27 -6 -24 -5 3 -9 -4
-9 -16 0 -12 -5 -30 -10 -41 -8 -14 -7 -19 2 -19 9 0 9 -3 2 -8 -15 -10 -24
-52 -11 -52 6 0 2 -7 -9 -15 -13 -10 -14 -14 -5 -15 9 0 10 -4 4 -12 -6 -7
-10 -25 -9 -40 1 -16 -2 -28 -7 -28 -4 0 -5 -5 -1 -11 3 -6 0 -15 -7 -20 -8
-5 -9 -9 -3 -9 6 0 9 -13 6 -30 -2 -16 -7 -28 -11 -26 -4 3 -7 -4 -7 -14 0
-10 4 -16 8 -14 4 3 8 0 8 -5 0 -6 -4 -11 -9 -11 -10 0 -7 -43 5 -61 4 -8 3
-9 -4 -5 -7 4 -12 1 -12 -9 0 -10 5 -13 13 -9 9 6 9 5 0 -7 -15 -19 -14 -299
1 -299 7 0 8 -3 1 -8 -5 -4 -10 -14 -10 -22 0 -8 5 -18 10 -22 6 -5 5 -8 -4
-8 -11 0 -11 -3 -1 -15 10 -12 10 -15 0 -15 -10 0 -10 -3 0 -15 7 -8 10 -15 7
-15 -3 0 -2 -13 3 -30 6 -21 5 -30 -3 -30 -8 0 -7 -3 1 -9 8 -5 15 -29 15 -60
1 -28 5 -51 8 -51 12 0 17 -39 5 -44 -8 -3 -8 -5 1 -5 6 -1 9 -10 6 -21 -3
-11 -1 -20 5 -20 6 0 9 -8 7 -17 -1 -10 4 -29 12 -42 8 -13 11 -21 6 -18 -6 4
-5 -8 1 -28 6 -18 13 -32 16 -30 3 2 5 -11 4 -28 -1 -37 5 -59 15 -53 4 3 8
-5 8 -17 3 -46 7 -65 15 -61 4 3 8 -2 8 -10 0 -9 6 -16 13 -16 9 0 8 -3 -2 -9
-9 -6 -9 -10 -2 -12 6 -2 12 -16 13 -31 1 -16 6 -28 10 -28 4 0 8 -9 8 -20 0
-11 4 -20 9 -20 6 0 8 -9 6 -20 -2 -11 -1 -19 3 -17 4 1 8 -1 9 -6 2 -4 16
-34 32 -66 17 -32 27 -61 24 -65 -4 -3 -1 -6 5 -6 7 0 12 -10 12 -22 0 -19 2
-20 11 -8 8 12 9 11 7 -5 -2 -11 3 -26 12 -33 10 -9 10 -11 1 -6 -9 5 -12 3
-7 -4 4 -7 14 -12 22 -12 8 0 12 -5 8 -11 -3 -6 7 -24 22 -41 16 -17 23 -28
17 -24 -19 11 -16 -4 5 -23 10 -9 26 -33 35 -53 10 -21 25 -42 35 -47 9 -6 13
-11 8 -11 -6 0 -1 -9 10 -20 33 -33 43 -48 37 -54 -4 -3 1 -6 11 -6 9 0 14 -4
11 -10 -3 -5 -1 -10 6 -10 7 0 10 -3 6 -6 -9 -9 25 -44 36 -37 6 3 7 1 3 -6
-4 -6 16 -36 51 -72 108 -112 121 -128 115 -134 -4 -4 -2 -5 4 -3 6 2 26 -12
43 -29 17 -18 33 -33 36 -33 11 0 70 -63 67 -72 -1 -5 2 -7 6 -4 5 3 17 -3 27
-14 10 -11 22 -17 26 -14 5 3 9 -2 9 -11 0 -11 5 -15 16 -11 8 3 12 2 9 -4 -3
-6 -2 -10 4 -10 5 0 27 -16 48 -35 21 -19 44 -35 51 -35 6 0 12 -4 12 -9 0 -5
15 -16 33 -25 45 -23 71 -39 78 -50 4 -5 12 -5 19 -1 8 5 11 4 6 -3 -3 -6 3
-13 14 -17 11 -3 20 -11 20 -16 0 -6 4 -8 9 -4 5 3 15 -1 23 -8 20 -20 59 -40
65 -33 3 3 11 -1 17 -8 6 -8 20 -16 31 -18 11 -2 26 -11 34 -21 7 -10 19 -16
27 -13 8 3 14 1 14 -4 0 -6 3 -9 8 -8 11 2 46 -14 54 -26 5 -7 8 -6 8 4 1 12
2 12 10 -2 6 -10 19 -15 30 -13 11 2 18 0 15 -6 -4 -5 5 -9 19 -9 14 0 26 -5
26 -12 0 -6 3 -9 6 -5 4 3 19 0 35 -9 16 -8 31 -14 34 -14 16 1 54 -13 51 -19
-3 -4 13 -6 35 -5 21 1 36 -2 33 -7 -3 -5 6 -10 20 -11 47 -2 51 -3 57 -10 3
-5 17 -9 32 -10 15 -1 27 -5 27 -8 0 -3 15 -6 33 -8 66 -5 72 -6 80 -16 4 -7
10 -6 17 4 6 9 10 10 10 3 0 -6 8 -12 18 -12 23 -1 86 -9 90 -11 1 -2 11 -3
21 -4 11 0 22 -4 26 -8 4 -3 20 -2 36 2 18 5 27 5 24 -1 -4 -5 -1 -9 4 -9 6 0
11 5 11 10 0 6 5 10 11 10 5 0 7 -4 4 -10 -3 -5 -1 -10 4 -10 6 0 11 6 11 13
0 9 2 9 8 1 10 -17 427 -9 487 9 11 3 38 8 60 11 22 2 49 8 59 12 15 6 17 4
11 -7 -6 -11 -5 -12 6 -1 7 6 22 12 34 12 12 0 27 6 34 12 11 11 12 10 6 -2
-8 -13 -6 -13 8 -1 9 7 24 11 32 7 8 -3 15 -1 15 5 0 6 5 7 10 4 6 -3 10 -2
10 3 0 5 13 8 30 7 16 -1 27 1 24 6 -4 8 25 13 64 12 6 -1 12 4 12 9 0 6 7 8
15 4 8 -3 15 -1 15 4 0 6 3 9 8 9 4 -1 10 0 15 1 4 1 10 3 15 4 4 1 17 7 28
14 12 6 24 8 28 4 4 -3 10 -1 14 6 5 6 18 13 30 15 12 2 25 6 28 10 4 4 16 7
26 7 11 0 16 4 13 10 -3 5 0 7 8 4 8 -3 22 2 31 11 9 9 20 13 26 10 5 -3 10
-1 10 5 0 6 5 8 10 5 6 -3 10 -1 10 6 0 7 3 9 7 6 3 -4 15 1 26 10 15 13 19
14 13 3 -4 -9 -2 -8 7 3 8 9 19 17 26 17 6 0 11 5 11 11 0 5 4 8 10 4 9 -6 44
10 68 33 7 7 18 10 23 7 5 -4 9 1 9 10 0 9 4 14 9 10 5 -3 16 2 24 10 9 8 20
15 25 15 5 0 15 7 22 15 7 8 21 15 32 15 10 0 16 5 13 10 -3 6 0 10 8 10 8 0
23 8 35 17 54 47 63 53 71 53 5 0 12 7 15 16 3 8 10 13 15 10 5 -3 12 1 15 10
3 8 9 13 13 11 11 -6 43 30 35 39 -4 4 -2 4 4 1 6 -3 37 18 69 48 32 30 62 55
67 55 4 0 7 5 5 12 -1 7 3 12 8 13 17 0 125 117 125 135 0 6 3 9 8 8 4 -1 21
10 37 26 17 16 23 26 15 21 -8 -4 -6 1 5 12 11 11 23 19 26 17 4 -2 10 8 13
21 4 14 10 23 15 20 11 -6 23 24 14 37 -3 7 -1 8 5 4 7 -4 16 2 21 17 5 13 17
27 27 31 9 4 14 9 12 12 -3 3 7 19 23 36 15 17 26 35 23 40 -3 4 0 8 6 8 6 0
8 5 5 10 -3 5 2 10 12 10 15 0 16 2 3 10 -11 7 -11 10 -2 10 7 0 10 5 7 10 -3
6 0 10 7 10 7 0 18 10 24 23 43 86 62 116 69 109 5 -4 5 1 2 10 -4 10 -2 18 4
18 6 0 8 4 5 9 -3 5 1 14 9 21 8 7 15 21 15 31 0 11 5 19 12 19 6 0 8 3 5 7
-4 3 -2 12 4 20 6 7 8 13 5 13 -4 0 0 7 9 16 9 9 14 22 11 30 -3 7 2 18 10 24
8 7 14 21 14 32 0 10 6 21 14 24 8 3 12 12 9 20 -3 8 0 21 7 29 7 8 10 15 6
15 -4 0 0 13 9 30 9 16 13 30 9 30 -4 0 -1 6 5 13 6 8 8 17 4 20 -3 4 -1 7 6
7 7 0 11 6 8 14 -3 8 -3 17 1 20 7 8 13 33 16 64 0 12 5 22 10 22 4 0 6 11 4
25 -3 13 -1 22 3 19 5 -3 9 5 9 18 0 13 6 30 13 37 10 11 9 12 -2 6 -10 -6
-12 -4 -5 6 11 18 15 36 16 77 1 17 4 32 8 32 4 0 6 16 5 35 0 19 3 35 8 35 4
0 5 5 2 10 -3 6 -3 15 1 22 4 7 7 26 7 42 0 17 5 37 11 45 8 11 8 13 -1 7 -10
-5 -11 1 -7 26 3 18 8 39 10 46 2 7 0 11 -4 8 -4 -2 -8 4 -8 14 0 10 3 17 7
15 3 -2 6 58 5 135 0 76 -3 137 -7 134 -4 -2 -3 12 1 31 4 19 5 33 1 31 -4 -3
-6 16 -6 42 1 29 -4 54 -14 66 -9 11 -10 16 -3 12 6 -4 12 -3 12 3 0 5 -6 12
-12 14 -10 4 -10 6 -1 6 9 1 10 8 3 27 -6 14 -8 29 -5 34 3 5 1 11 -5 15 -5 3
-10 11 -10 16 0 6 6 7 13 3 8 -6 8 -3 -1 9 -8 9 -11 21 -7 27 3 5 2 10 -3 10
-6 0 -8 9 -5 20 3 11 1 20 -5 20 -6 0 -9 8 -7 19 2 10 -3 31 -10 45 -10 19
-11 24 -2 19 8 -4 7 -1 -1 10 -8 9 -11 20 -8 26 3 5 0 11 -8 14 -8 3 -12 14
-9 25 2 10 -2 35 -11 55 -9 22 -11 37 -5 37 6 0 3 7 -5 16 -9 8 -14 19 -11 24
3 5 0 10 -5 12 -6 2 -12 13 -13 26 0 12 -5 22 -9 22 -4 0 -8 11 -8 25 0 14 -5
25 -11 25 -5 0 -8 4 -5 8 3 5 -1 20 -9 35 -7 14 -11 28 -8 31 3 3 -2 8 -11 12
-9 3 -14 10 -11 14 8 12 -6 41 -16 34 -5 -3 -9 -2 -8 3 4 22 -2 43 -17 57 -8
9 -13 16 -10 16 3 0 -3 16 -14 35 -11 20 -20 41 -20 47 0 6 -10 19 -22 29 -11
11 -17 19 -12 19 5 0 0 7 -10 15 -11 9 -14 15 -7 15 9 0 8 5 -3 16 -9 8 -16
20 -16 25 0 6 -4 7 -10 4 -6 -3 -7 1 -4 9 3 9 1 16 -5 16 -6 0 -11 6 -11 13 0
7 -9 23 -19 34 -11 12 -17 24 -14 27 4 3 -1 6 -11 6 -9 0 -15 4 -11 9 3 5 -4
16 -15 24 -11 7 -18 16 -15 19 3 2 -8 19 -25 38 -16 18 -27 38 -23 43 4 6 0 8
-11 4 -9 -4 -15 -3 -12 2 3 4 -4 18 -15 29 -11 12 -17 22 -14 22 3 0 0 6 -7
14 -9 10 -15 11 -20 2 -5 -6 -8 -1 -8 12 0 13 -4 20 -10 17 -5 -3 -10 0 -10 7
0 8 -9 20 -19 28 -11 7 -18 17 -15 22 3 4 -1 8 -8 8 -7 0 -22 13 -33 30 -11
16 -30 35 -42 41 -13 7 -23 19 -23 27 0 9 -3 13 -6 9 -4 -3 -23 11 -44 33 -21
22 -40 36 -44 33 -3 -4 -6 1 -6 10 0 10 -7 17 -16 17 -9 0 -18 9 -21 20 -3 11
-9 17 -13 15 -5 -3 -20 6 -34 20 -14 14 -29 26 -33 28 -5 1 -7 6 -5 10 1 5 -2
6 -7 3 -5 -3 -24 8 -42 24 -19 16 -37 30 -40 30 -3 0 -19 11 -35 25 -16 14
-35 25 -41 25 -7 0 -13 5 -13 10 0 6 -7 10 -15 10 -8 0 -15 5 -15 11 0 5 -4 8
-9 4 -5 -3 -16 2 -24 10 -9 8 -20 15 -26 15 -6 0 -11 3 -11 8 0 8 -49 32 -64
31 -5 0 -12 3 -15 8 -3 4 -15 15 -25 23 -18 13 -19 13 -11 0 4 -8 -3 -5 -16 6
-13 12 -30 19 -36 17 -7 -3 -13 0 -13 7 0 6 -4 8 -10 5 -5 -3 -10 -1 -10 4 0
6 -7 11 -15 11 -8 0 -15 4 -15 10 0 5 -7 7 -15 4 -8 -4 -15 -1 -15 5 0 6 -3
10 -7 9 -5 -1 -18 3 -30 10 -13 7 -23 10 -23 6 0 -3 -7 -1 -15 6 -8 7 -15 9
-15 6 0 -4 -10 -1 -22 6 -13 6 -29 13 -36 14 -8 1 -21 6 -30 10 -23 10 -44 15
-64 17 -9 1 -14 5 -12 9 5 8 -10 11 -48 11 -10 0 -18 4 -18 8 0 5 -13 9 -29 9
-17 0 -32 4 -36 9 -3 6 -13 10 -23 10 -51 2 -70 6 -66 12 2 4 -12 7 -32 7 -20
0 -40 5 -44 12 -6 9 -9 9 -12 -1 -4 -10 -8 -11 -19 -3 -8 6 -33 10 -56 10 -22
-1 -39 2 -37 6 2 4 0 9 -6 13 -5 3 -10 1 -10 -5 0 -6 -5 -8 -12 -4 -7 5 -44 9
-83 10 -38 2 -70 4 -70 4 0 1 -17 3 -37 5 -27 2 -36 -1 -31 -9 5 -8 3 -8 -8 0
-19 15 -182 17 -173 2 4 -7 3 -8 -4 -4 -20 12 -52 15 -52 5 0 -5 -5 -9 -11 -9
-5 0 -8 4 -5 8 5 8 -20 13 -27 5z"/>
</g>
</svg>
